<?xml version="1.0" encoding="UTF-8"?>
<svg version="1.1" xmlns="http://www.w3.org/2000/svg" width="197" height="148">
<path d="M0 0 C65.01 0 130.02 0 197 0 C197 48.84 197 97.68 197 148 C131.99 148 66.98 148 0 148 C0 99.16 0 50.32 0 0 Z " fill="#FEFEFE" transform="translate(0,0)"/>
<path d="M0 0 C0.99 0 1.98 0 3 0 C3 4.29 3 8.58 3 13 C5.64 13 8.28 13 11 13 C11.00410889 14.03406982 11.00821777 15.06813965 11.01245117 16.13354492 C11.03427867 19.98251698 11.08860426 23.83047198 11.15258789 27.67895508 C11.17573666 29.34226712 11.19015631 31.0057251 11.19555664 32.66918945 C11.2048698 35.06553751 11.24590551 37.45960059 11.29296875 39.85546875 C11.2890361 40.5952446 11.28510345 41.33502045 11.28105164 42.09721375 C11.39507062 46.16241008 11.81266971 47.7876468 14.54418945 50.8840332 C15.35460693 51.58230225 16.16502441 52.28057129 17 53 C17 53.66 17 54.32 17 55 C17.66 55 18.32 55 19 55 C19 50.05 19 45.1 19 40 C21.64 40 24.28 40 27 40 C27 35.71 27 31.42 27 27 C27.66 27 28.32 27 29 27 C29 31.29 29 35.58 29 40 C31.64 40 34.28 40 37 40 C37 48.91 37 57.82 37 67 C40.3 67 43.6 67 47 67 C47 65.68 47 64.36 47 63 C50.99455527 63.61454696 53.74466336 65.70646737 57 68 C56.875 69.75 56.875 69.75 56 72 C50.88888889 76 50.88888889 76 47 76 C47 74.35 47 72.7 47 71 C46.13048706 71.0314209 46.13048706 71.0314209 45.2434082 71.06347656 C42.59995076 71.14696807 39.9567712 71.19876153 37.3125 71.25 C36.40048828 71.28351563 35.48847656 71.31703125 34.54882812 71.3515625 C27.73896948 71.45061499 27.73896948 71.45061499 24.046875 69.19921875 C23.37140625 68.47347656 22.6959375 67.74773437 22 67 C21.47277344 66.44441406 20.94554688 65.88882813 20.40234375 65.31640625 C19.91894531 64.73761719 19.43554688 64.15882812 18.9375 63.5625 C15.61947909 59.69634788 12.24077984 55.89335188 8.8125 52.125 C8.30130615 51.55338135 7.7901123 50.9817627 7.26342773 50.39282227 C4.73043168 47.62055971 2.55640652 45.34107931 -1 44 C-2.58980554 45.05279107 -4.17157156 46.11772697 -5.75 47.1875 C-6.63171875 47.77917969 -7.5134375 48.37085938 -8.421875 48.98046875 C-12.60594489 52.25799016 -14.78409761 54.46850278 -15.54589844 59.87231445 C-15.58686417 61.36889234 -15.60695993 62.86614474 -15.609375 64.36328125 C-15.62591125 65.15526413 -15.64244751 65.94724701 -15.65948486 66.76322937 C-15.70786572 69.27973257 -15.72931275 71.79563196 -15.75 74.3125 C-15.77816813 76.02411876 -15.80809675 77.73570951 -15.83984375 79.44726562 C-15.91362147 83.63146067 -15.96325618 87.8153225 -16 92 C-18.64 92 -21.28 92 -24 92 C-24 96.29 -24 100.58 -24 105 C-25.32 105 -26.64 105 -28 105 C-28 100.71 -28 96.42 -28 92 C-30.31 92 -32.62 92 -35 92 C-35 82.1 -35 72.2 -35 62 C-40.61 61.67 -46.22 61.34 -52 61 C-52 59.35 -52 57.7 -52 56 C-46.39 56 -40.78 56 -35 56 C-35 46.76 -35 37.52 -35 28 C-32.69 28 -30.38 28 -28 28 C-28 23.71 -28 19.42 -28 15 C-26.68 15 -25.36 15 -24 15 C-24 19.29 -24 23.58 -24 28 C-22.865625 27.979375 -21.73125 27.95875 -20.5625 27.9375 C-17 28 -17 28 -16 29 C-15.91348389 30.41570123 -15.89295096 31.835595 -15.90234375 33.25390625 C-15.90556641 34.10791016 -15.90878906 34.96191406 -15.91210938 35.84179688 C-15.92467773 37.18854492 -15.92467773 37.18854492 -15.9375 38.5625 C-15.94201172 39.46419922 -15.94652344 40.36589844 -15.95117188 41.29492188 C-15.96299775 43.53001314 -15.9794778 45.76497437 -16 48 C-12.70596513 46.52310582 -11.17821469 45.78593593 -9 43 C-7.9410443 37.91316188 -8.01900054 32.85678552 -8.0625 27.6875 C-8.04938364 26.26494132 -8.03314006 24.84240781 -8.01367188 23.41992188 C-7.97292277 19.94617031 -7.97494808 16.47397143 -8 13 C-5.36 13 -2.72 13 0 13 C0 8.71 0 4.42 0 0 Z " fill="#1EA949" transform="translate(96,16)"/>
<path d="M0 0 C0.99 0 1.98 0 3 0 C3 4.29 3 8.58 3 13 C5.64 13 8.28 13 11 13 C11.00410889 14.03406982 11.00821777 15.06813965 11.01245117 16.13354492 C11.03427867 19.98251698 11.08860426 23.83047198 11.15258789 27.67895508 C11.17573666 29.34226712 11.19015631 31.0057251 11.19555664 32.66918945 C11.2048698 35.06553751 11.24590551 37.45960059 11.29296875 39.85546875 C11.2890361 40.5952446 11.28510345 41.33502045 11.28105164 42.09721375 C11.39507062 46.16241008 11.81266971 47.7876468 14.54418945 50.8840332 C15.35460693 51.58230225 16.16502441 52.28057129 17 53 C17 53.66 17 54.32 17 55 C17.66 55 18.32 55 19 55 C19 50.05 19 45.1 19 40 C21.64 40 24.28 40 27 40 C27 35.71 27 31.42 27 27 C27.66 27 28.32 27 29 27 C29 31.29 29 35.58 29 40 C31.64 40 34.28 40 37 40 C37 48.91 37 57.82 37 67 C40.3 67 43.6 67 47 67 C47 65.68 47 64.36 47 63 C50.99455527 63.61454696 53.74466336 65.70646737 57 68 C56.875 69.75 56.875 69.75 56 72 C50.88888889 76 50.88888889 76 47 76 C47 74.35 47 72.7 47 71 C46.13048706 71.0314209 46.13048706 71.0314209 45.2434082 71.06347656 C42.59995076 71.14696807 39.9567712 71.19876153 37.3125 71.25 C36.40048828 71.28351563 35.48847656 71.31703125 34.54882812 71.3515625 C27.73896948 71.45061499 27.73896948 71.45061499 24.046875 69.19921875 C23.03367187 68.11060547 23.03367187 68.11060547 22 67 C21.47277344 66.44441406 20.94554687 65.88882813 20.40234375 65.31640625 C19.91894531 64.73761719 19.43554688 64.15882812 18.9375 63.5625 C15.61947909 59.69634788 12.24077984 55.89335188 8.8125 52.125 C8.30130615 51.55338135 7.7901123 50.9817627 7.26342773 50.39282227 C4.73043168 47.62055971 2.55640652 45.34107931 -1 44 C-1.886875 44.70125 -2.77375 45.4025 -3.6875 46.125 C-7 48 -7 48 -9.875 47.25 C-10.926875 46.63125 -10.926875 46.63125 -12 46 C-11.2733313 45.46959106 -11.2733313 45.46959106 -10.53198242 44.9284668 C-8.27022891 42.08136066 -8.56420465 39.74330063 -8.48828125 36.14453125 C-8.47033005 35.48289474 -8.45237885 34.82125824 -8.43388367 34.13957214 C-8.37979102 32.03061253 -8.34589069 29.92187901 -8.3125 27.8125 C-8.27932573 26.38082792 -8.24483595 24.94918567 -8.20898438 23.51757812 C-8.12406743 20.0119361 -8.05725079 16.50621527 -8 13 C-5.36 13 -2.72 13 0 13 C0 8.71 0 4.42 0 0 Z " fill="#1DA547" transform="translate(96,16)"/>
<path d="M0 0 C0.66 0.33 1.32 0.66 2 1 C1.5155542 1.32653564 1.0311084 1.65307129 0.53198242 1.98950195 C-1.82986047 5.08906789 -1.48068472 8.41872089 -1.51171875 12.16796875 C-1.52966995 12.96278152 -1.54762115 13.7575943 -1.56611633 14.57649231 C-1.6202697 17.11344101 -1.65413028 19.65020107 -1.6875 22.1875 C-1.72066874 23.90822941 -1.75515799 25.6289339 -1.79101562 27.34960938 C-1.87599873 31.56627022 -1.94278542 35.78287464 -2 40 C-4.64 40 -7.28 40 -10 40 C-10 44.29 -10 48.58 -10 53 C-11.32 53 -12.64 53 -14 53 C-14 48.71 -14 44.42 -14 40 C-16.31 40 -18.62 40 -21 40 C-21 30.1 -21 20.2 -21 10 C-26.61 9.67 -32.22 9.34 -38 9 C-38 8.67 -38 8.34 -38 8 C-37.19892822 8.00112793 -36.39785645 8.00225586 -35.57250977 8.00341797 C-31.90167624 7.99122515 -28.23287658 7.93346294 -24.5625 7.875 C-23.30244141 7.87757812 -22.04238281 7.88015625 -20.74414062 7.8828125 C-12.0646694 7.70151806 -6.23914805 6.23914805 0 0 Z " fill="#DF1E23" transform="translate(82,68)"/>
<path d="M0 0 C7 6 7 6 8 7 C11.3 7.33 14.6 7.66 18 8 C18 17.57 18 27.14 18 37 C15.36 37 12.72 37 10 37 C10 41.29 10 45.58 10 50 C9.01 50 8.02 50 7 50 C7 45.71 7 41.42 7 37 C4.69 37 2.38 37 0 37 C0 24.79 0 12.58 0 0 Z " fill="#E31D20" transform="translate(115,82)"/>
<path d="M0 0 C4.92493665 2.19339629 8.24270603 5.36826656 11 10 C11.80460689 13.88671965 11.67319606 17.55273844 11.4375 21.5 C11.40591797 22.51320313 11.37433594 23.52640625 11.34179688 24.5703125 C11.25992161 27.04996334 11.14536301 29.52339766 11 32 C8.69 32 6.38 32 4 32 C4 35.96 4 39.92 4 44 C3.01 44 2.02 44 1 44 C1 39.71 1 35.42 1 31 C-1.64 31 -4.28 31 -7 31 C-7.20357077 26.77154434 -7.32772735 22.54434786 -7.4375 18.3125 C-7.49615234 17.11431641 -7.55480469 15.91613281 -7.61523438 14.68164062 C-7.78524894 5.96232198 -7.78524894 5.96232198 -5.41064453 3.05224609 C-3.47265625 1.66796875 -3.47265625 1.66796875 0 0 Z " fill="#EC2322" transform="translate(95,61)"/>
<path d="M0 0 C0.99 0 1.98 0 3 0 C3 4.29 3 8.58 3 13 C5.64 13 8.28 13 11 13 C11 24.22 11 35.44 11 47 C10.67 47 10.34 47 10 47 C9.01 43.535 9.01 43.535 8 40 C5.36 40 2.72 40 0 40 C-0.66 37.36 -1.32 34.72 -2 32 C-2.66 32 -3.32 32 -4 32 C-4.33 32.99 -4.66 33.98 -5 35 C-5.33 35 -5.66 35 -6 35 C-6.495 37.475 -6.495 37.475 -7 40 C-7.33 40 -7.66 40 -8 40 C-8 31.09 -8 22.18 -8 13 C-5.36 13 -2.72 13 0 13 C0 8.71 0 4.42 0 0 Z " fill="#49B748" transform="translate(96,16)"/>
<path d="M0 0 C0.33 0 0.66 0 1 0 C1 8.91 1 17.82 1 27 C4.3 27 7.6 27 11 27 C11 25.68 11 24.36 11 23 C14.99455527 23.61454696 17.74466336 25.70646737 21 28 C20.875 29.75 20.875 29.75 20 32 C14.88888889 36 14.88888889 36 11 36 C11 34.35 11 32.7 11 31 C10.42032471 31.02094727 9.84064941 31.04189453 9.2434082 31.06347656 C6.59995076 31.14696807 3.9567712 31.19876153 1.3125 31.25 C-0.05551758 31.30027344 -0.05551758 31.30027344 -1.45117188 31.3515625 C-5.73748378 31.41390885 -8.26592199 31.44350547 -12 29.1875 C-14.33568023 26.63284975 -16.19127589 23.9475504 -18 21 C-16.35 20.67 -14.7 20.34 -13 20 C-12.67 21.32 -12.34 22.64 -12 24 C-8.03611362 24.07622858 -4.8726592 23.9681648 -1 23 C-0.67 15.41 -0.34 7.82 0 0 Z " fill="#139041" transform="translate(132,56)"/>
<path d="M0 0 C0.66 0.33 1.32 0.66 2 1 C1.5155542 1.32653564 1.0311084 1.65307129 0.53198242 1.98950195 C-1.82986047 5.08906789 -1.48068472 8.41872089 -1.51171875 12.16796875 C-1.52966995 12.96278152 -1.54762115 13.7575943 -1.56611633 14.57649231 C-1.6202697 17.11344101 -1.65413028 19.65020107 -1.6875 22.1875 C-1.72066874 23.90822941 -1.75515799 25.6289339 -1.79101562 27.34960938 C-1.87599873 31.56627022 -1.94278542 35.78287464 -2 40 C-4.64 40 -7.28 40 -10 40 C-10 44.29 -10 48.58 -10 53 C-11.32 53 -12.64 53 -14 53 C-14 48.71 -14 44.42 -14 40 C-16.31 40 -18.62 40 -21 40 C-21 30.1 -21 20.2 -21 10 C-17.37 10 -13.74 10 -10 10 C-10 10.33 -10 10.66 -10 11 C-13.3 11 -16.6 11 -20 11 C-20 20.24 -20 29.48 -20 39 C-14.555 38.505 -14.555 38.505 -9 38 C-8.67 34.7 -8.34 31.4 -8 28 C-7.67 28 -7.34 28 -7 28 C-7 30.64 -7 33.28 -7 36 C-5.68 36 -4.36 36 -3 36 C-3 26.1 -3 16.2 -3 6 C-4.65 6.99 -6.3 7.98 -8 9 C-11.3215332 9.34057617 -11.3215332 9.34057617 -15.05078125 9.29296875 C-15.70958786 9.28872391 -16.36839447 9.28447906 -17.04716492 9.28010559 C-19.13603885 9.26341196 -21.22392139 9.22578058 -23.3125 9.1875 C-24.73501203 9.17244097 -26.1575393 9.15875469 -27.58007812 9.14648438 C-31.05370351 9.11354003 -34.52675487 9.06182408 -38 9 C-38 8.67 -38 8.34 -38 8 C-37.19892822 8.00112793 -36.39785645 8.00225586 -35.57250977 8.00341797 C-31.90167624 7.99122515 -28.23287658 7.93346294 -24.5625 7.875 C-23.30244141 7.87757812 -22.04238281 7.88015625 -20.74414062 7.8828125 C-12.0646694 7.70151806 -6.23914805 6.23914805 0 0 Z " fill="#D34149" transform="translate(82,68)"/>
<path d="M0 0 C0.7425 0.763125 1.485 1.52625 2.25 2.3125 C7.18918677 7.18513897 7.18918677 7.18513897 13.765625 8.51171875 C14.65507812 8.54716797 15.54453125 8.58261719 16.4609375 8.61914062 C17.38132813 8.64169922 18.30171875 8.66425781 19.25 8.6875 C20.65378906 8.73874023 20.65378906 8.73874023 22.0859375 8.79101562 C24.39050533 8.87332162 26.69470119 8.9425263 29 9 C29 10.65 29 12.3 29 14 C29.7425 13.62875 30.485 13.2575 31.25 12.875 C34 12 34 12 36.3125 12.875 C36.869375 13.24625 37.42625 13.6175 38 14 C37.67 15.32 37.34 16.64 37 18 C31.25 18.125 31.25 18.125 29 17 C29 16.34 29 15.68 29 15 C28.21625 15.33 27.4325 15.66 26.625 16 C24 17 24 17 22 17 C22 19.64 22 22.28 22 25 C21.01 25.33 20.02 25.66 19 26 C19 21.38 19 16.76 19 12 C17.494375 12.144375 15.98875 12.28875 14.4375 12.4375 C11.87109375 12.68359375 11.87109375 12.68359375 9 12 C6.69 9.69 4.38 7.38 2 5 C1.67 16.55 1.34 28.1 1 40 C0.67 40 0.34 40 0 40 C-0.16742247 34.62501726 -0.32800169 29.24989076 -0.48217773 23.87451172 C-0.53562295 22.04502834 -0.59095425 20.21559907 -0.64819336 18.38623047 C-0.73003411 15.76020984 -0.80514096 13.13407081 -0.87890625 10.5078125 C-0.90594131 9.68693146 -0.93297638 8.86605042 -0.96083069 8.02029419 C-1.11387171 2.22774341 -1.11387171 2.22774341 0 0 Z " fill="#F7FAF6" transform="translate(114,78)"/>
<path d="M0 0 C0.99 0 1.98 0 3 0 C3 4.29 3 8.58 3 13 C5.64 13 8.28 13 11 13 C11 24.22 11 35.44 11 47 C10.67 47 10.34 47 10 47 C9.67 36.44 9.34 25.88 9 15 C6.36 15.66 3.72 16.32 1 17 C0.67 19.64 0.34 22.28 0 25 C-1.98 24.67 -3.96 24.34 -6 24 C-6.33 29.28 -6.66 34.56 -7 40 C-7.33 40 -7.66 40 -8 40 C-8 31.09 -8 22.18 -8 13 C-5.36 13 -2.72 13 0 13 C0 8.71 0 4.42 0 0 Z " fill="#6DBD5D" transform="translate(96,16)"/>
<path d="M0 0 C1.32 0 2.64 0 4 0 C4 4.29 4 8.58 4 13 C5.7015625 12.9690625 5.7015625 12.9690625 7.4375 12.9375 C11 13 11 13 12 14 C12.08651611 15.41570123 12.10704904 16.835595 12.09765625 18.25390625 C12.09443359 19.10791016 12.09121094 19.96191406 12.08789062 20.84179688 C12.07951172 21.73962891 12.07113281 22.63746094 12.0625 23.5625 C12.05798828 24.46419922 12.05347656 25.36589844 12.04882812 26.29492188 C12.03700225 28.53001314 12.0205222 30.76497437 12 33 C11.67 33 11.34 33 11 33 C10.67 30.36 10.34 27.72 10 25 C9.67 27.64 9.34 30.28 9 33 C8.67 33 8.34 33 8 33 C7.34 29.37 6.68 25.74 6 22 C5.34 22 4.68 22 4 22 C4 20.35 4 18.7 4 17 C2.72125 16.87625 1.4425 16.7525 0.125 16.625 C-3.75 16.25 -3.75 16.25 -6 14 C-6 22.91 -6 31.82 -6 41 C-6.33 41 -6.66 41 -7 41 C-7 31.76 -7 22.52 -7 13 C-4.69 13 -2.38 13 0 13 C0 8.71 0 4.42 0 0 Z " fill="#68BD75" transform="translate(68,31)"/>
<path d="M0 0 C0.33 0 0.66 0 1 0 C1.33 3.96 1.66 7.92 2 12 C4.64 12 7.28 12 10 12 C10 9.36 10 6.72 10 4 C10.33 4 10.66 4 11 4 C11.41626139 6.60238237 11.80854441 9.20465765 12.1875 11.8125 C12.30802734 12.55048828 12.42855469 13.28847656 12.55273438 14.04882812 C12.85546875 16.20703125 12.85546875 16.20703125 13 20 C12.01 20.99 11.02 21.98 10 23 C7.69 20.69 5.38 18.38 3 16 C-0.71739829 17.76778171 -0.71739829 17.76778171 -2.9375 19.25 C-5 20 -5 20 -7.75 19.125 C-8.4925 18.75375 -9.235 18.3825 -10 18 C-9.525625 17.566875 -9.05125 17.13375 -8.5625 16.6875 C-5.75462907 13.65499939 -5.76313866 10.26668372 -5.4375 6.3125 C-5.35371094 5.31863281 -5.26992187 4.32476562 -5.18359375 3.30078125 C-5.12300781 2.54152344 -5.06242187 1.78226563 -5 1 C-4.67 1 -4.34 1 -4 1 C-3.67 2.65 -3.34 4.3 -3 6 C-2.67 5.34 -2.34 4.68 -2 4 C-1.34 4 -0.68 4 0 4 C0 2.68 0 1.36 0 0 Z " fill="#24AE4F" transform="translate(94,44)"/>
<path d="M0 0 C0.928125 0.226875 1.85625 0.45375 2.8125 0.6875 C-1.33281605 5.23397567 -6.01918961 8.387137 -11.1875 11.6875 C-12.1775 12.3475 -13.1675 13.0075 -14.1875 13.6875 C-17.09838867 13.91455078 -17.09838867 13.91455078 -20.60546875 13.8828125 C-21.85908203 13.87636719 -23.11269531 13.86992188 -24.40429688 13.86328125 C-26.36979492 13.83814453 -26.36979492 13.83814453 -28.375 13.8125 C-29.71027987 13.80246639 -31.04556689 13.7933412 -32.38085938 13.78515625 C-35.64992015 13.76155292 -38.91862028 13.72862594 -42.1875 13.6875 C-42.1875 12.3675 -42.1875 11.0475 -42.1875 9.6875 C-35.9175 9.6875 -29.6475 9.6875 -23.1875 9.6875 C-23.1875 8.0375 -23.1875 6.3875 -23.1875 4.6875 C-22.8575 4.6875 -22.5275 4.6875 -22.1875 4.6875 C-21.8575 6.3375 -21.5275 7.9875 -21.1875 9.6875 C-18.8775 10.0175 -16.5675 10.3475 -14.1875 10.6875 C-14.1875 10.0275 -14.1875 9.3675 -14.1875 8.6875 C-12.764375 8.5946875 -12.764375 8.5946875 -11.3125 8.5 C-10.28125 8.231875 -9.25 7.96375 -8.1875 7.6875 C-6.92604232 5.32563861 -6.92604232 5.32563861 -6.1875 2.6875 C-4.19924153 -0.2948877 -3.66763206 -0.35957177 0 0 Z " fill="#219E4D" transform="translate(86.1875,62.3125)"/>
<path d="M0 0 C3.34384807 2.07860826 5.36057828 5.04563602 7.3125 8.4375 C7.3125 9.0975 7.3125 9.7575 7.3125 10.4375 C4.6725 10.4375 2.0325 10.4375 -0.6875 10.4375 C-1.0175 11.4275 -1.3475 12.4175 -1.6875 13.4375 C-2.14125 12.7775 -2.595 12.1175 -3.0625 11.4375 C-3.59875 10.7775 -4.135 10.1175 -4.6875 9.4375 C-5.3475 9.4375 -6.0075 9.4375 -6.6875 9.4375 C-7.0175 16.3675 -7.3475 23.2975 -7.6875 30.4375 C-8.0175 30.4375 -8.3475 30.4375 -8.6875 30.4375 C-8.89107077 26.20904434 -9.01522735 21.98184786 -9.125 17.75 C-9.18365234 16.55181641 -9.24230469 15.35363281 -9.30273438 14.11914062 C-9.47274894 5.39982198 -9.47274894 5.39982198 -7.09814453 2.48974609 C-2.46306818 -0.82102273 -2.46306818 -0.82102273 0 0 Z " fill="#EC3C30" transform="translate(96.6875,61.5625)"/>
<path d="M0 0 C1.32 0 2.64 0 4 0 C4 4.29 4 8.58 4 13 C6.31 13 8.62 13 11 13 C11 13.33 11 13.66 11 14 C8.36 14 5.72 14 3 14 C3 9.71 3 5.42 3 1 C2.34 1 1.68 1 1 1 C1 5.29 1 9.58 1 14 C-1.64 14 -4.28 14 -7 14 C-7 18.95 -7 23.9 -7 29 C-9 29 -9 29 -10.578125 27.6796875 C-12.27640813 25.84649403 -13.73952112 24.16143973 -15 22 C-14.4375 18.6875 -14.4375 18.6875 -13 16 C-12.67 15.34 -12.34 14.68 -12 14 C-8.204122 12.4816488 -4.0122978 12.93312837 0 13 C0 8.71 0 4.42 0 0 Z " fill="#B8DCBC" transform="translate(122,42)"/>
<path d="M0 0 C5.69501456 2.84750728 9.94778492 5.23396761 13 11 C13.87890299 18.29240735 12.90687919 25.74591019 12 33 C11.67 33 11.34 33 11 33 C11.01160156 32.410979 11.02320312 31.82195801 11.03515625 31.21508789 C11.69083912 17.73788275 11.69083912 17.73788275 5.9375 6.1875 C3.85184897 4.28575365 3.85184897 4.28575365 2 3 C1.1646875 3.433125 1.1646875 3.433125 0.3125 3.875 C-2.07114743 5.03461227 -4.53884039 6.01553616 -7 7 C-7 15.58 -7 24.16 -7 33 C-4.36 33 -1.72 33 1 33 C1 37.29 1 41.58 1 46 C1.99 46.33 2.98 46.66 4 47 C2.68 47 1.36 47 0 47 C0 42.71 0 38.42 0 34 C-2.64 34 -5.28 34 -8 34 C-8.01981934 33.28344238 -8.03963867 32.56688477 -8.06005859 31.82861328 C-8.15509519 28.5936937 -8.26486019 25.35943906 -8.375 22.125 C-8.42140625 20.43310547 -8.42140625 20.43310547 -8.46875 18.70703125 C-8.50742188 17.63066406 -8.54609375 16.55429688 -8.5859375 15.4453125 C-8.6173584 14.45031738 -8.6487793 13.45532227 -8.68115234 12.43017578 C-8.77247083 9.82145483 -8.77247083 9.82145483 -11 8 C-7.37 5.36 -3.74 2.72 0 0 Z " fill="#E4C3B7" transform="translate(95,59)"/>
<path d="M0 0 C3.99455527 0.61454696 6.74466336 2.70646737 10 5 C9.875 6.75 9.875 6.75 9 9 C3.88888889 13 3.88888889 13 0 13 C0 11.35 0 9.7 0 8 C-3.63 7.67 -7.26 7.34 -11 7 C-10.67 6.01 -10.34 5.02 -10 4 C-6.7 4 -3.4 4 0 4 C0 2.68 0 1.36 0 0 Z " fill="#1E8D4A" transform="translate(143,79)"/>
<path d="M0 0 C7 6 7 6 7.79467773 9.15966797 C7.73969116 10.80926514 7.73969116 10.80926514 7.68359375 12.4921875 C7.64975586 14.29042969 7.64975586 14.29042969 7.61523438 16.125 C7.55658203 17.3625 7.49792969 18.6 7.4375 19.875 C7.40591797 21.13570312 7.37433594 22.39640625 7.34179688 23.6953125 C7.25949515 26.79926335 7.1445621 29.8984281 7 33 C6.67 33 6.34 33 6 33 C5.67 29.37 5.34 25.74 5 22 C4.67 22 4.34 22 4 22 C3.34 17.71 2.68 13.42 2 9 C1.67 13.29 1.34 17.58 1 22 C0.34 21.67 -0.32 21.34 -1 21 C-0.67 14.07 -0.34 7.14 0 0 Z " fill="#FAFAF6" transform="translate(107,71)"/>
<path d="M0 0 C0.33 0 0.66 0 1 0 C1 8.91 1 17.82 1 27 C-4.61 27 -10.22 27 -16 27 C-16.33 28.32 -16.66 29.64 -17 31 C-17 29.35 -17 27.7 -17 26 C-10.565 25.505 -10.565 25.505 -4 25 C-3.34619225 21.73096125 -2.86987498 19.13072407 -2.75390625 15.8984375 C-2.72103516 15.16109375 -2.68816406 14.42375 -2.65429688 13.6640625 C-2.5927922 12.13037149 -2.53554196 10.5965043 -2.48242188 9.0625 C-2.30497516 5.24572159 -2.16299906 3.24449858 0 0 Z " fill="#E7F1E9" transform="translate(60,45)"/>
<path d="M0 0 C0.33 0 0.66 0 1 0 C1.33 7.92 1.66 15.84 2 24 C2.99 22.68 3.98 21.36 5 20 C5 22.64 5 25.28 5 28 C7.31 28 9.62 28 12 28 C10.68 28.33 9.36 28.66 8 29 C8.33 30.65 8.66 32.3 9 34 C6.03 34 3.06 34 0 34 C0 22.78 0 11.56 0 0 Z " fill="#D9131B" transform="translate(115,84)"/>
<path d="M0 0 C0.66 0.33 1.32 0.66 2 1 C1.5155542 1.32653564 1.0311084 1.65307129 0.53198242 1.98950195 C-1.82986047 5.08906789 -1.48068472 8.41872089 -1.51171875 12.16796875 C-1.52966995 12.96278152 -1.54762115 13.7575943 -1.56611633 14.57649231 C-1.6202697 17.11344101 -1.65413028 19.65020107 -1.6875 22.1875 C-1.72066874 23.90822941 -1.75515799 25.6289339 -1.79101562 27.34960938 C-1.87599873 31.56627022 -1.94278542 35.78287464 -2 40 C-2.33 40 -2.66 40 -3 40 C-3 28.78 -3 17.56 -3 6 C-4.65 6.99 -6.3 7.98 -8 9 C-11.3215332 9.34057617 -11.3215332 9.34057617 -15.05078125 9.29296875 C-15.70958786 9.28872391 -16.36839447 9.28447906 -17.04716492 9.28010559 C-19.13603885 9.26341196 -21.22392139 9.22578058 -23.3125 9.1875 C-24.73501203 9.17244097 -26.1575393 9.15875469 -27.58007812 9.14648438 C-31.05370351 9.11354003 -34.52675487 9.06182408 -38 9 C-38 8.67 -38 8.34 -38 8 C-37.19892822 8.00112793 -36.39785645 8.00225586 -35.57250977 8.00341797 C-31.90167624 7.99122515 -28.23287658 7.93346294 -24.5625 7.875 C-23.30244141 7.87757812 -22.04238281 7.88015625 -20.74414062 7.8828125 C-12.0646694 7.70151806 -6.23914805 6.23914805 0 0 Z " fill="#CDA395" transform="translate(82,68)"/>
<path d="M0 0 C0.7425 0.763125 1.485 1.52625 2.25 2.3125 C7.18918677 7.18513897 7.18918677 7.18513897 13.765625 8.51171875 C14.65507812 8.54716797 15.54453125 8.58261719 16.4609375 8.61914062 C17.38132813 8.64169922 18.30171875 8.66425781 19.25 8.6875 C20.65378906 8.73874023 20.65378906 8.73874023 22.0859375 8.79101562 C24.39050533 8.87332162 26.69470119 8.9425263 29 9 C29 9.33 29 9.66 29 10 C25.62822101 10.34409575 22.25427666 10.61574332 18.875 10.875 C17.44800781 11.02195312 17.44800781 11.02195312 15.9921875 11.171875 C15.0640625 11.23632812 14.1359375 11.30078125 13.1796875 11.3671875 C12.33132324 11.44050293 11.48295898 11.51381836 10.60888672 11.58935547 C8 11 8 11 2 5 C1.67 16.55 1.34 28.1 1 40 C0.67 40 0.34 40 0 40 C-0.16742247 34.62501726 -0.32800169 29.24989076 -0.48217773 23.87451172 C-0.53562295 22.04502834 -0.59095425 20.21559907 -0.64819336 18.38623047 C-0.73003411 15.76020984 -0.80514096 13.13407081 -0.87890625 10.5078125 C-0.90594131 9.68693146 -0.93297638 8.86605042 -0.96083069 8.02029419 C-1.11387171 2.22774341 -1.11387171 2.22774341 0 0 Z " fill="#CDB6A2" transform="translate(114,78)"/>
<path d="M0 0 C2.64 0 5.28 0 8 0 C8 6.27 8 12.54 8 19 C7.67 19 7.34 19 7 19 C6.67 16.36 6.34 13.72 6 11 C5.67 13.64 5.34 16.28 5 19 C4.67 19 4.34 19 4 19 C3.34 15.37 2.68 11.74 2 8 C1.34 8 0.68 8 0 8 C0.33 6.02 0.66 4.04 1 2 C0.34 1.67 -0.32 1.34 -1 1 C-0.67 0.67 -0.34 0.34 0 0 Z " fill="#48B258" transform="translate(72,45)"/>
<path d="M0 0 C0.33 0 0.66 0 1 0 C1.33 3.96 1.66 7.92 2 12 C-0.31 12.33 -2.62 12.66 -5 13 C-5 14.32 -5 15.64 -5 17 C-3.68 17.33 -2.36 17.66 -1 18 C-2.6875 19.125 -2.6875 19.125 -5 20 C-7.75 19.125 -7.75 19.125 -10 18 C-9.525625 17.566875 -9.05125 17.13375 -8.5625 16.6875 C-5.75462907 13.65499939 -5.76313866 10.26668372 -5.4375 6.3125 C-5.35371094 5.31863281 -5.26992187 4.32476562 -5.18359375 3.30078125 C-5.12300781 2.54152344 -5.06242187 1.78226563 -5 1 C-4.67 1 -4.34 1 -4 1 C-3.67 2.65 -3.34 4.3 -3 6 C-2.67 5.34 -2.34 4.68 -2 4 C-1.34 4 -0.68 4 0 4 C0 2.68 0 1.36 0 0 Z " fill="#36B246" transform="translate(94,44)"/>
<path d="M0 0 C5.94 0 11.88 0 18 0 C17.01 0.66 16.02 1.32 15 2 C19.29 2.33 23.58 2.66 28 3 C28 3.33 28 3.66 28 4 C18.76 4 9.52 4 0 4 C0 2.68 0 1.36 0 0 Z " fill="#0B8838" transform="translate(44,72)"/>
<path d="M0 0 C2.97 0 5.94 0 9 0 C9 0.66 9 1.32 9 2 C10.98 2 12.96 2 15 2 C15 2.66 15 3.32 15 4 C12.69 4 10.38 4 8 4 C8 7.96 8 11.92 8 16 C7.01 16 6.02 16 5 16 C5 11.38 5 6.76 5 2 C3.35 1.67 1.7 1.34 0 1 C0 0.67 0 0.34 0 0 Z " fill="#DD3A37" transform="translate(91,89)"/>
<path d="M0 0 C0.99 0 1.98 0 3 0 C3 0.99 3 1.98 3 3 C5.31 3 7.62 3 10 3 C10 3.33 10 3.66 10 4 C7.36 4 4.72 4 2 4 C2 8.29 2 12.58 2 17 C1.01 17 0.02 17 -1 17 C-1 12.71 -1 8.42 -1 4 C-3.31 4 -5.62 4 -8 4 C-8 3.67 -8 3.34 -8 3 C-5.36 2.67 -2.72 2.34 0 2 C0 1.34 0 0.68 0 0 Z " fill="#D03237" transform="translate(123,115)"/>
<path d="M0 0 C0.33 0 0.66 0 1 0 C1.14883585 4.18076075 1.25743418 8.36010137 1.32958984 12.54272461 C1.35967954 13.9638964 1.40056404 15.38488372 1.45263672 16.80541992 C1.87394505 28.59792263 1.87394505 28.59792263 -0.29199219 32.07275391 C-2.40233385 33.89123981 -4.16591265 35 -7 35 C-7 33.68 -7 32.36 -7 31 C-6.01 31 -5.02 31 -4 31 C-4 30.34 -4 29.68 -4 29 C-3.01 28.34 -2.02 27.68 -1 27 C-0.48895078 24.19189856 -0.48895078 24.19189856 -0.48828125 20.8984375 C-0.45283203 19.68671875 -0.41738281 18.475 -0.38085938 17.2265625 C-0.34702148 15.32003906 -0.34702148 15.32003906 -0.3125 13.375 C-0.27833984 12.09625 -0.24417969 10.8175 -0.20898438 9.5 C-0.12627521 6.33342068 -0.05719915 3.16712636 0 0 Z " fill="#E3EFE6" transform="translate(87,29)"/>
<path d="M0 0 C2.31 0 4.62 0 7 0 C7 0.33 7 0.66 7 1 C5.02 1 3.04 1 1 1 C1.10699219 1.83144531 1.21398437 2.66289063 1.32421875 3.51953125 C1.44410156 4.60621094 1.56398438 5.69289063 1.6875 6.8125 C1.81511719 7.89144531 1.94273438 8.97039062 2.07421875 10.08203125 C2 13 2 13 0.76953125 14.88671875 C-1 16 -1 16 -5 16 C-5 15.34 -5 14.68 -5 14 C-5.99 13.67 -6.98 13.34 -8 13 C-7.01 13 -6.02 13 -5 13 C-5 9.37 -5 5.74 -5 2 C-6.32 2.33 -7.64 2.66 -9 3 C-9 2.34 -9 1.68 -9 1 C-7.35 1 -5.7 1 -4 1 C-4 4.96 -4 8.92 -4 13 C-2.68 13 -1.36 13 0 13 C0 8.71 0 4.42 0 0 Z " fill="#F6F5F0" transform="translate(72,108)"/>
<path d="M0 0 C1.32 0 2.64 0 4 0 C4.33 0.66 4.66 1.32 5 2 C5.66 1.67 6.32 1.34 7 1 C7.13277344 1.68707031 7.26554687 2.37414062 7.40234375 3.08203125 C7.57894531 3.98308594 7.75554687 4.88414063 7.9375 5.8125 C8.11152344 6.70582031 8.28554687 7.59914063 8.46484375 8.51953125 C8.97741153 11.11397171 8.97741153 11.11397171 10 14 C7.69 14 5.38 14 3 14 C3 9.71 3 5.42 3 1 C2.01 0.67 1.02 0.34 0 0 Z " fill="#F2FAED" transform="translate(96,15)"/>
<path d="M0 0 C2.31 0 4.62 0 7 0 C6.26330078 0.58201172 6.26330078 0.58201172 5.51171875 1.17578125 C3.49274247 3.61211696 3.69101195 5.06930672 3.8125 8.1875 C3.83957031 9.08855469 3.86664063 9.98960938 3.89453125 10.91796875 C3.92933594 11.60503906 3.96414062 12.29210937 4 13 C3.67 12.34 3.34 11.68 3 11 C2.01 11 1.02 11 0 11 C0 7.37 0 3.74 0 0 Z " fill="#F9FAF5" transform="translate(99,93)"/>
<path d="M0 0 C2.31 1.98 4.62 3.96 7 6 C3.125 9 3.125 9 2 9 C1.67 13.29 1.34 17.58 1 22 C0.34 21.67 -0.32 21.34 -1 21 C-0.67 14.07 -0.34 7.14 0 0 Z " fill="#F1F8EF" transform="translate(107,71)"/>
<path d="M0 0 C1.65 0 3.3 0 5 0 C5.33 2.64 5.66 5.28 6 8 C5.01 8.33 4.02 8.66 3 9 C2.67 9.66 2.34 10.32 2 11 C0 9 0 9 -0.1953125 6.8359375 C-0.17210938 6.02382813 -0.14890625 5.21171875 -0.125 4.375 C-0.10695313 3.55773438 -0.08890625 2.74046875 -0.0703125 1.8984375 C-0.04710938 1.27195313 -0.02390625 0.64546875 0 0 Z " fill="#25B248" transform="translate(116,56)"/>
<path d="M0 0 C0.99 0 1.98 0 3 0 C3 4.29 3 8.58 3 13 C3.99 13 4.98 13 6 13 C6 8.71 6 4.42 6 0 C6.33 0 6.66 0 7 0 C7 5.28 7 10.56 7 16 C5.35 15.67 3.7 15.34 2 15 C2 10.38 2 5.76 2 1 C1.34 0.67 0.68 0.34 0 0 Z " fill="#ECD7D3" transform="translate(119,119)"/>
<path d="M0 0 C0.33 1.32 0.66 2.64 1 4 C1.7425 3.62875 2.485 3.2575 3.25 2.875 C6 2 6 2 8.3125 2.875 C8.869375 3.24625 9.42625 3.6175 10 4 C9.67 5.32 9.34 6.64 9 8 C3.57142857 8.36190476 3.57142857 8.36190476 1.125 6.8125 C-0.34781139 4.43963721 -0.22223194 2.74086056 0 0 Z " fill="#E8F4ED" transform="translate(142,88)"/>
<path d="M0 0 C0.33 0 0.66 0 1 0 C1.33 1.65 1.66 3.3 2 5 C4.64 5.33 7.28 5.66 10 6 C10 6.66 10 7.32 10 8 C5.05 8 0.1 8 -5 8 C-4 6 -4 6 -1 5 C-0.67 3.35 -0.34 1.7 0 0 Z " fill="#179346" transform="translate(63,67)"/>
<path d="M0 0 C0.99 0 1.98 0 3 0 C3 4.29 3 8.58 3 13 C2.01 13 1.02 13 0 13 C0 8.71 0 4.42 0 0 Z " fill="#6DB94B" transform="translate(96,16)"/>
<path d="M0 0 C1.65 0 3.3 0 5 0 C5.66 1.32 6.32 2.64 7 4 C7 3.01 7 2.02 7 1 C7.66 1.33 8.32 1.66 9 2 C8.67 2.66 8.34 3.32 8 4 C10.64 4 13.28 4 16 4 C16 4.33 16 4.66 16 5 C10.39 5 4.78 5 -1 5 C-0.34 4.67 0.32 4.34 1 4 C0.67 2.68 0.34 1.36 0 0 Z " fill="#0A843A" transform="translate(124,82)"/>
<path d="M0 0 C4.29 0 8.58 0 13 0 C13 1.32 13 2.64 13 4 C12.34 4 11.68 4 11 4 C11 7.63 11 11.26 11 15 C10.67 15 10.34 15 10 15 C10 10.38 10 5.76 10 1 C6.7 1 3.4 1 0 1 C0 0.67 0 0.34 0 0 Z " fill="#F8D7D3" transform="translate(123,89)"/>
<path d="M0 0 C1.32 0 2.64 0 4 0 C4 2.64 4 5.28 4 8 C2.68 8 1.36 8 0 8 C0 5.36 0 2.72 0 0 Z " fill="#27B348" transform="translate(128,56)"/>
<path d="M0 0 C0.66 0.33 1.32 0.66 2 1 C2 4.3 2 7.6 2 11 C1.01 11 0.02 11 -1 11 C-1.02688151 9.35425434 -1.04634123 7.70838587 -1.0625 6.0625 C-1.07410156 5.14597656 -1.08570312 4.22945313 -1.09765625 3.28515625 C-1 1 -1 1 0 0 Z " fill="#DA1822" transform="translate(97,94)"/>
<path d="M0 0 C0.33 0 0.66 0 1 0 C1.33 3.96 1.66 7.92 2 12 C0.35 10.68 -1.3 9.36 -3 8 C-1.125 2.25 -1.125 2.25 0 0 Z " fill="#EAF0EC" transform="translate(110,56)"/>
<path d="M0 0 C0.33 0 0.66 0 1 0 C1.19504458 2.10348074 1.38078496 4.20782585 1.5625 6.3125 C1.66691406 7.48425781 1.77132812 8.65601563 1.87890625 9.86328125 C2 13 2 13 1 16 C0.34 15.67 -0.32 15.34 -1 15 C-1 13.68 -1 12.36 -1 11 C-1.66 11 -2.32 11 -3 11 C-3 10.34 -3 9.68 -3 9 C-2.34 8.67 -1.68 8.34 -1 8 C-0.53476937 6.10466658 -0.53476937 6.10466658 -0.375 3.9375 C-0.25125 2.638125 -0.1275 1.33875 0 0 Z " fill="#24B449" transform="translate(104,48)"/>
<path d="M0 0 C3.16115776 1.36983503 3.9927092 1.9890638 6 5 C4.68 5.33 3.36 5.66 2 6 C1.67 5.34 1.34 4.68 1 4 C0.34 4.66 -0.32 5.32 -1 6 C-1 5.34 -1 4.68 -1 4 C-2.32 4.33 -3.64 4.66 -5 5 C-3.35 3.35 -1.7 1.7 0 0 Z " fill="#E23F35" transform="translate(95,61)"/>
<path d="M0 0 C0.66 0 1.32 0 2 0 C1.67 0.99 1.34 1.98 1 3 C0.77202438 5.73289293 0.58331813 8.45042204 0.4375 11.1875 C0.39431641 11.93708984 0.35113281 12.68667969 0.30664062 13.45898438 C0.20077315 15.30578375 0.0999024 17.15286834 0 19 C-0.33 19 -0.66 19 -1 19 C-1.16798051 16.72926348 -1.33434113 14.45840707 -1.5 12.1875 C-1.5928125 10.92292969 -1.685625 9.65835938 -1.78125 8.35546875 C-1.91914781 6.24021483 -2 4.11974408 -2 2 C-1.34 1.34 -0.68 0.68 0 0 Z " fill="#FAF6F4" transform="translate(83,69)"/>
<path d="M0 0 C0.99 0 1.98 0 3 0 C3 3.3 3 6.6 3 10 C2.01 9.34 1.02 8.68 0 8 C-0.40843923 5.28796348 -0.13336867 2.7562858 0 0 Z " fill="#53B74A" transform="translate(69,32)"/>
<path d="M0 0 C0.66 0.33 1.32 0.66 2 1 C0.75803878 2.15454162 -0.49392845 3.29832562 -1.75 4.4375 C-2.79414062 5.39462891 -2.79414062 5.39462891 -3.859375 6.37109375 C-5.98792725 7.99081325 -7.39023405 8.58267256 -10 9 C-8.82648048 5.47944145 -8.09677617 5.17776613 -5 3.375 C-2.3413953 1.8943999 -2.3413953 1.8943999 0 0 Z " fill="#D6DACA" transform="translate(82,68)"/>
<path d="M0 0 C1.65 1.65 3.3 3.3 5 5 C4.01 5.33 3.02 5.66 2 6 C1.67 7.65 1.34 9.3 1 11 C0.67 11 0.34 11 0 11 C0 7.37 0 3.74 0 0 Z " fill="#E52B2E" transform="translate(118,85)"/>
<path d="M0 0 C1.875 0.1875 1.875 0.1875 4 1 C5.25 3.5625 5.25 3.5625 6 6 C4.35 5.67 2.7 5.34 1 5 C1.33 3.68 1.66 2.36 2 1 C1.34 0.67 0.68 0.34 0 0 Z " fill="#118C43" transform="translate(119,80)"/>
<path d="M0 0 C0.33 1.32 0.66 2.64 1 4 C2.32 4.33 3.64 4.66 5 5 C3.3125 6.125 3.3125 6.125 1 7 C-1.75 6.125 -1.75 6.125 -4 5 C-2.68 3.35 -1.36 1.7 0 0 Z " fill="#39B05F" transform="translate(88,57)"/>
<path d="M0 0 C3.96 0 7.92 0 12 0 C12 0.33 12 0.66 12 1 C9.03 1 6.06 1 3 1 C3 1.66 3 2.32 3 3 C2.01 3.33 1.02 3.66 0 4 C0 2.68 0 1.36 0 0 Z " fill="#0D8742" transform="translate(44,72)"/>
<path d="M0 0 C0.78375 0.04125 1.5675 0.0825 2.375 0.125 C1.385 0.62 1.385 0.62 0.375 1.125 C-0.75850534 3.14169827 -0.75850534 3.14169827 -1.625 5.125 C-2.615 4.135 -3.605 3.145 -4.625 2.125 C-2.625 0.125 -2.625 0.125 0 0 Z " fill="#33B458" transform="translate(100.625,55.875)"/>
<path d="M0 0 C1.65 0 3.3 0 5 0 C3.515 3.96 3.515 3.96 2 8 C1.67 8 1.34 8 1 8 C0.67 5.36 0.34 2.72 0 0 Z " fill="#33AD40" transform="translate(62,45)"/>
</svg>
